<svg width="30" height="23" viewBox="0 0 30 23" fill="none" xmlns="http://www.w3.org/2000/svg">
<path d="M0 4.13818C0 3.03361 0.89543 2.13818 2 2.13818H4C5.10457 2.13818 6 3.03361 6 4.13818V14.1382C6 15.2428 6.89543 16.1382 8 16.1382H22C23.1046 16.1382 24 15.2428 24 14.1382V4.13818C24 3.03361 24.8954 2.13818 26 2.13818H28C29.1046 2.13818 30 3.03361 30 4.13818V17.1382C30 19.8996 27.7614 22.1382 25 22.1382H5C2.23858 22.1382 0 19.8996 0 17.1382V4.13818Z" fill="#D00076"/>
<path d="M7 3.13818C7 1.48133 8.34315 0.138184 10 0.138184H20C21.6569 0.138184 23 1.48133 23 3.13818V14.1382C23 14.6905 22.5523 15.1382 22 15.1382H8C7.44772 15.1382 7 14.6905 7 14.1382V3.13818Z" fill="#D00076"/>
</svg>
